<?xml version="1.0" standalone="no"?> <!DOCTYPE svg PUBLIC "-//W3C//DTD SVG 20010904//EN" "http://www.w3.org/TR/2001/REC-SVG-20010904/DTD/svg10.dtd"> <svg version="1.0" xmlns="http://www.w3.org/2000/svg" width="512.000000pt" height="512.000000pt" viewBox="0 0 512.000000 512.000000" preserveAspectRatio="xMidYMid meet"> <g transform="translate(0.000000,512.000000) scale(0.100000,-0.100000)" fill="#ffffff" stroke="none"> <path d="M536 5109 c-241 -40 -442 -218 -513 -455 -17 -55 -18 -178 -21 -2053 -2 -1721 0 -2007 12 -2080 33 -192 164 -367 337 -449 152 -72 -17 -67 2209 -67 2226 0 2057 -5 2209 67 153 73 281 229 328 399 17 60 18 186 18 2089 0 1903 -1 2029 -18 2089 -28 103 -84 198 -162 276 -106 106 -213 161 -356 184 -78 13 -3968 13 -4043 0z m4125 -165 c164 -63 275 -196 299 -359 7 -47 10 -720 8 -2070 l-3 -2000 -21 -56 c-31 -81 -64 -127 -130 -189 -72 -65 -137 -96 -229 -110 -45 -6 -769 -10 -2035 -10 -2138 0 -2039 -2 -2157 55 -114 56 -212 192 -233 325 -14 93 -14 3985 1 4066 17 93 63 176 136 244 83 78 149 110 258 123 17 2 935 4 2040 3 l2010 -1 56 -21z"/> <path d="M2242 4445 c-63 -13 -156 -38 -207 -56 l-93 -32 -43 -91 c-23 -50 -123 -264 -221 -476 -98 -212 -181 -386 -186 -388 -4 -1 -84 74 -177 168 -93 93 -173 170 -177 170 -15 0 -148 -212 -201 -321 -274 -562 -273 -1181 3 -1729 23 -46 70 -129 105 -184 66 -105 215 -293 240 -302 9 -4 42 22 86 68 39 40 114 117 167 170 l96 97 -42 45 c-158 171 -283 415 -348 676 -26 106 -31 404 -9 543 10 61 21 118 24 125 5 8 71 -53 191 -173 101 -102 187 -182 191 -178 4 4 62 130 129 278 67 149 132 288 144 310 l21 40 5 -1219 5 -1220 95 -34 c99 -35 298 -82 350 -82 l30 0 0 1910 0 1910 -32 -1 c-18 0 -84 -11 -146 -24z"/> <path d="M2750 2560 l0 -1910 33 0 c46 0 231 44 339 80 134 45 397 178 508 257 123 88 346 310 444 442 85 115 167 262 216 386 33 82 86 245 92 283 2 16 -32 57 -142 169 -80 82 -176 181 -215 221 l-69 72 216 217 217 218 -24 86 c-50 178 -142 384 -237 531 -111 173 -335 406 -504 527 -99 71 -363 204 -495 249 -97 34 -301 82 -348 82 l-31 0 0 -1910z m610 1171 c123 -92 285 -257 353 -358 26 -39 66 -110 89 -158 l41 -87 -164 -164 -164 -164 -140 2 -140 3 -3 503 c-2 402 0 502 11 502 7 0 60 -35 117 -79z m320 -1576 l164 -165 -53 -104 c-68 -132 -155 -248 -267 -356 -82 -78 -241 -202 -278 -216 -14 -6 -16 43 -16 500 l0 506 143 0 142 0 165 -165z"/> </g> </svg>